<svg width="44" height="44" viewBox="0 0 44 44" fill="none" xmlns="http://www.w3.org/2000/svg">
<path d="M43.5667 17.8744C43.8472 19.3472 44 20.887 44 22.4939C44 35.0628 35.4157 44 22.4504 44C19.5019 44.0009 16.5822 43.4324 13.858 42.3271C11.1337 41.2218 8.65847 39.6014 6.57357 37.5583C4.48868 35.5152 2.83503 33.0896 1.70711 30.4201C0.579186 27.7505 -0.000897931 24.8893 1.04327e-06 22C-0.000897931 19.1107 0.579186 16.2495 1.70711 13.5799C2.83503 10.9104 4.48868 8.48475 6.57357 6.44169C8.65847 4.39862 11.1337 2.77815 13.858 1.67286C16.5822 0.567566 19.5019 -0.000879915 22.4504 1.02234e-06C28.5123 1.02234e-06 33.5776 2.1857 37.4637 5.73466L31.135 11.9364V11.9208C28.7791 9.72166 25.7892 8.59305 22.4504 8.59305C15.043 8.59305 9.02213 14.7255 9.02213 21.9866C9.02213 29.2454 15.043 35.3913 22.4504 35.3913C29.1714 35.3913 33.7463 31.6256 34.6859 26.4541H22.4504V17.8744H43.569H43.5667Z" fill="white"/>
</svg>
