<svg width="41" height="51" viewBox="0 0 41 51" fill="none" xmlns="http://www.w3.org/2000/svg">
<path d="M20.8193 14.6535C18.8312 14.6535 15.7537 12.363 12.5128 12.4458C8.237 12.501 4.31524 14.957 2.10926 18.8481C-2.32995 26.6578 0.96541 38.1929 5.29568 44.54C7.41997 47.6307 9.92553 51.1078 13.2481 50.9974C16.4346 50.8595 17.6329 48.9001 21.5002 48.9001C25.3402 48.9001 26.4296 50.9974 29.8067 50.9146C33.2382 50.8595 35.4169 47.7687 37.514 44.6504C39.9379 41.0629 40.9455 37.5858 41 37.3926C40.9183 37.365 34.3276 34.7986 34.2459 27.0717C34.1914 20.6142 39.4476 17.5235 39.6927 17.3855C36.697 12.9425 32.0943 12.4458 30.4875 12.3354C26.2934 12.0043 22.7802 14.6535 20.8193 14.6535ZM27.9002 8.14083C29.6705 5.98834 30.8416 2.98037 30.5147 0C27.9819 0.110384 24.9317 1.71095 23.107 3.86344C21.4729 5.76757 20.0567 8.83073 20.438 11.7559C23.2432 11.9767 26.13 10.2933 27.9002 8.14083Z" fill="white"/>
</svg>
